<svg width="112" height="45" viewBox="0 0 112 45" fill="none" xmlns="http://www.w3.org/2000/svg">
<path d="M60.688 45H22.8C10.448 45 0.4 34.952 0.4 22.6C0.4 10.248 10.448 0.199997 22.8 0.199997H60.688C73.04 0.199997 83.088 10.248 83.088 22.6C83.088 34.952 73.04 45 60.688 45ZM60.688 5.64H22.8C13.456 5.64 5.84 13.256 5.84 22.6C5.84 31.944 13.456 39.56 22.8 39.56H60.688C70.032 39.56 77.648 31.944 77.648 22.6C77.648 13.256 70.032 5.64 60.688 5.64ZM95.9 0.199997H111.132V45H105.628V5.64H95.9V0.199997Z" fill="black"/>
</svg>
