<svg width="179" height="45" viewBox="0 0 179 45" fill="none" xmlns="http://www.w3.org/2000/svg">
<path d="M60.688 45H22.8C10.448 45 0.4 34.952 0.4 22.6C0.4 10.248 10.448 0.199997 22.8 0.199997H60.688C73.04 0.199997 83.088 10.248 83.088 22.6C83.088 34.952 73.04 45 60.688 45ZM60.688 5.64H22.8C13.456 5.64 5.84 13.256 5.84 22.6C5.84 31.944 13.456 39.56 22.8 39.56H60.688C70.032 39.56 77.648 31.944 77.648 22.6C77.648 13.256 70.032 5.64 60.688 5.64ZM95.964 45V30.92C95.964 24.904 100.892 19.976 106.908 19.848H167.58C170.716 19.848 173.212 17.352 173.212 14.28V11.272C173.212 8.2 170.716 5.64 167.58 5.64H95.9V0.199997H167.58C173.724 0.199997 178.652 5.128 178.652 11.272V14.28C178.652 20.296 173.788 25.224 167.708 25.352H107.036C103.964 25.352 101.468 27.848 101.468 30.92V39.56H178.588V45H95.964Z" fill="black"/>
</svg>
