<svg width="179" height="45" viewBox="0 0 179 45" fill="none" xmlns="http://www.w3.org/2000/svg">
<path d="M60.688 45H22.8C10.448 45 0.4 34.952 0.4 22.6C0.4 10.248 10.448 0.199997 22.8 0.199997H60.688C73.04 0.199997 83.088 10.248 83.088 22.6C83.088 34.952 73.04 45 60.688 45ZM60.688 5.64H22.8C13.456 5.64 5.84 13.256 5.84 22.6C5.84 31.944 13.456 39.56 22.8 39.56H60.688C70.032 39.56 77.648 31.944 77.648 22.6C77.648 13.256 70.032 5.64 60.688 5.64ZM178.652 11.272V14.28C178.652 17.608 177.116 20.616 174.748 22.664C177.052 24.712 178.46 27.656 178.46 30.92V33.928C178.46 40.008 173.532 45 167.452 45H95.9V39.56H167.452C170.524 39.56 173.02 37 173.02 33.928V30.92C173.02 27.848 170.524 25.352 167.452 25.352H106.78V19.848H167.58C170.716 19.848 173.212 17.352 173.212 14.28V11.272C173.212 8.2 170.716 5.64 167.58 5.64H95.9V0.199997H167.58C173.724 0.199997 178.652 5.128 178.652 11.272Z" fill="black"/>
</svg>
