<svg width="179" height="45" viewBox="0 0 179 45" fill="none" xmlns="http://www.w3.org/2000/svg">
<path d="M60.688 45H22.8C10.448 45 0.4 34.952 0.4 22.6C0.4 10.248 10.448 0.199997 22.8 0.199997H60.688C73.04 0.199997 83.088 10.248 83.088 22.6C83.088 34.952 73.04 45 60.688 45ZM60.688 5.64H22.8C13.456 5.64 5.84 13.256 5.84 22.6C5.84 31.944 13.456 39.56 22.8 39.56H60.688C70.032 39.56 77.648 31.944 77.648 22.6C77.648 13.256 70.032 5.64 60.688 5.64ZM178.652 5.64H106.972C103.9 5.64 101.34 8.2 101.34 11.272V19.848H167.644C173.66 19.976 178.588 24.904 178.588 30.92V33.928C178.588 40.008 173.596 45 167.516 45H95.964V39.56H167.516C170.588 39.56 173.084 37 173.084 33.928V30.92C173.084 27.848 170.588 25.352 167.516 25.352H95.9V11.272C95.9 5.128 100.892 0.199997 106.972 0.199997H178.652V5.64Z" fill="black"/>
</svg>
