<svg width="94" height="28" viewBox="0 0 94 28" fill="none" xmlns="http://www.w3.org/2000/svg">
<path d="M38.8166 21.4385H18.9321V6.66235H38.8166C42.8906 6.66235 46.2047 9.97643 46.2047 14.0504C46.2047 18.1244 42.8906 21.4385 38.8166 21.4385ZM20.7264 8.4566V19.6442H38.8166C41.8985 19.6442 44.4104 17.1323 44.4104 14.0504C44.4104 10.9685 41.8985 8.4566 38.8166 8.4566H20.7264Z" fill="white"/>
<path d="M68.8303 21.7683H56.3339C52.2599 21.7683 48.9458 18.4543 48.9458 14.3803C48.9458 10.3063 52.2599 6.99219 56.3339 6.99219H68.8303C71.5955 6.99219 74.1075 8.53313 75.3951 10.9817H73.2631C72.2077 9.60968 70.5823 8.78643 68.8303 8.78643H56.3339C53.252 8.78643 50.74 11.2984 50.74 14.3803C50.74 17.4621 53.252 19.9741 56.3339 19.9741H68.8303C71.5955 19.9741 73.9175 17.9265 74.3397 15.2879H54.7085V13.4726H76.2183V14.3803C76.2183 18.4543 72.9043 21.7683 68.8303 21.7683Z" fill="white"/>
<path d="M15.8315 17.4807H21.4386V19.4597H15.8315V17.4807Z" fill="black"/>
<path d="M67.2842 8.90527H77.8386V11.214H67.2842V8.90527Z" fill="black"/>
<path fill-rule="evenodd" clip-rule="evenodd" d="M20.449 21.4387H2.96826V19.4597H20.449V21.4387Z" fill="white"/>
<path fill-rule="evenodd" clip-rule="evenodd" d="M91.3612 8.90522L68.2734 8.90522V6.92627L91.3612 6.92627V8.90522Z" fill="white"/>
<path fill-rule="evenodd" clip-rule="evenodd" d="M87.0737 1.97895H7.25618C5.07029 1.97895 3.29828 3.75096 3.29828 5.93684V21.1088C3.29828 23.2947 5.07029 25.0667 7.25618 25.0667H87.0737C89.2596 25.0667 91.0316 23.2947 91.0316 21.1088V5.93684C91.0316 3.75096 89.2596 1.97895 87.0737 1.97895ZM7.25618 0C3.97735 0 1.31934 2.65802 1.31934 5.93684V21.1088C1.31934 24.3876 3.97735 27.0456 7.25618 27.0456H87.0737C90.3526 27.0456 93.0106 24.3876 93.0106 21.1088V5.93684C93.0106 2.65802 90.3526 0 87.0737 0H7.25618Z" fill="white"/>
<path d="M0 17.4807H5.60702V19.4597H0V17.4807Z" fill="black"/>
<path d="M88.3931 8.90527H94.0001V10.8842H88.3931V8.90527Z" fill="black"/>
</svg>
